<svg width="92" height="92" viewBox="0 0 92 92" fill="none" xmlns="http://www.w3.org/2000/svg">
  <circle cx="46" cy="46" r="34.5" stroke="#4D3424" stroke-width="2.6"/>
  <path d="M28.5 53C29.8 43.6 37.1 35.8 45.8 32.8C53.3 30.2 60.7 30.9 66.3 34.2" stroke="#4D3424" stroke-width="2.6" stroke-linecap="round"/>
  <path d="M47 23.7C43.2 22.4 38.6 22.6 34.5 25.5C38.8 28.7 43.9 29.5 48.1 28.2C51.4 27.2 54.2 24.9 56 22C52.7 21.4 49.7 22 47 23.7Z" stroke="#4D3424" stroke-width="2.1" stroke-linejoin="round"/>
  <path d="M34.6 64.7C27.7 55.4 29.7 42.9 39.2 37.9C43.2 48.5 41.4 59.4 34.6 64.7Z" stroke="#4D3424" stroke-width="2.1" stroke-linejoin="round"/>
  <path d="M55.9 58.4C49.7 50.2 49.7 40.1 56 33.3C63.7 40.6 63.7 51.2 55.9 58.4Z" stroke="#4D3424" stroke-width="2.1" stroke-linejoin="round"/>
  <path d="M39 61.9C43.1 48.9 51.3 37.8 65.1 28.9" stroke="#4D3424" stroke-width="2.1" stroke-linecap="round"/>
</svg>
